<svg xmlns="http://www.w3.org/2000/svg" width="50" height="46" viewBox="0 0 50 46">
  <defs>
    <style>
      .cls-1 {
        fill: #030436;
      }
    </style>
  </defs>
  <path id="Icon_awesome-github" data-name="Icon awesome-github" class="cls-1" d="M24.677.563C10.7.563,0,10.578,0,23.771A23.99,23.99,0,0,0,17.087,46.524c1.29.219,1.744-.533,1.744-1.151,0-.59-.03-3.843-.03-5.84,0,0-7.056,1.427-8.538-2.835,0,0-1.149-2.768-2.8-3.481,0,0-2.308-1.493.161-1.465a5.385,5.385,0,0,1,3.891,2.454c2.208,3.672,5.907,2.616,7.349,1.988a5.179,5.179,0,0,1,1.613-3.205c-5.635-.59-11.321-1.36-11.321-10.511a7.008,7.008,0,0,1,2.379-5.6,8.516,8.516,0,0,1,.262-6.459C13.9,9.8,18.75,12.985,18.75,12.985a25.189,25.189,0,0,1,12.661,0s4.849-3.2,6.956-2.568a8.512,8.512,0,0,1,.262,6.459c1.613,1.684,2.6,3,2.6,5.6,0,9.179-5.937,9.911-11.573,10.511A5.461,5.461,0,0,1,31.371,37.4c0,3.205-.03,7.172-.03,7.952,0,.618.464,1.37,1.744,1.151A23.756,23.756,0,0,0,50,23.771C50,10.578,38.659.563,24.677.563Z" transform="translate(0 -0.563)"/>
</svg>
